<svg width="714" height="405" viewBox="0 0 714 405" fill="none" xmlns="http://www.w3.org/2000/svg">
<path d="M0 85H503C591.366 85 663 156.634 663 245V245C663 333.366 591.366 405 503 405H0V85Z" fill="#5368DF"/>
<mask id="mask0_2_749" style="mask-type:alpha" maskUnits="userSpaceOnUse" x="178" y="0" width="536" height="346">
<path d="M706 0H186C181.582 0 178 3.58172 178 8V338C178 342.418 181.582 346 186 346H706C710.418 346 714 342.418 714 338V8C714 3.58172 710.418 0 706 0Z" fill="white"/>
</mask>
<g mask="url(#mask0_2_749)">
<path d="M706 0H186C181.582 0 178 3.58172 178 8V338C178 342.418 181.582 346 186 346H706C710.418 346 714 342.418 714 338V8C714 3.58172 710.418 0 706 0Z" fill="#E8EAF6"/>
<path fill-rule="evenodd" clip-rule="evenodd" d="M174.47 0.196991H721.47V59.197H174.47V0.196991Z" fill="#242A45"/>
<path opacity="0.245" d="M216.47 46.197C225.307 46.197 232.47 39.0335 232.47 30.197C232.47 21.3604 225.307 14.197 216.47 14.197C207.633 14.197 200.47 21.3604 200.47 30.197C200.47 39.0335 207.633 46.197 216.47 46.197Z" fill="white"/>
<path opacity="0.104" d="M677.47 46.197C686.307 46.197 693.47 39.0335 693.47 30.197C693.47 21.3604 686.307 14.197 677.47 14.197C668.633 14.197 661.47 21.3604 661.47 30.197C661.47 39.0335 668.633 46.197 677.47 46.197Z" fill="white"/>
<path opacity="0.75" d="M364.47 20.197H250.47C248.813 20.197 247.47 21.5401 247.47 23.197C247.47 24.8538 248.813 26.197 250.47 26.197H364.47C366.127 26.197 367.47 24.8538 367.47 23.197C367.47 21.5401 366.127 20.197 364.47 20.197Z" fill="white"/>
<path opacity="0.25" d="M308.47 34.197H250.47C248.813 34.197 247.47 35.5401 247.47 37.197C247.47 38.8538 248.813 40.197 250.47 40.197H308.47C310.127 40.197 311.47 38.8538 311.47 37.197C311.47 35.5401 310.127 34.197 308.47 34.197Z" fill="white"/>
<path d="M488 93H243C238.582 93 235 96.5817 235 101V401C235 405.418 238.582 409 243 409H488C492.418 409 496 405.418 496 401V101C496 96.5817 492.418 93 488 93Z" fill="white"/>
<path d="M650 93H538C533.582 93 530 96.5817 530 101V401C530 405.418 533.582 409 538 409H650C654.418 409 658 405.418 658 401V101C658 96.5817 654.418 93 650 93Z" fill="white"/>
<path opacity="0.5" d="M430.47 131.197H316.47C314.813 131.197 313.47 132.54 313.47 134.197C313.47 135.854 314.813 137.197 316.47 137.197H430.47C432.127 137.197 433.47 135.854 433.47 134.197C433.47 132.54 432.127 131.197 430.47 131.197Z" fill="#242A45"/>
<path d="M282.47 157.197C291.307 157.197 298.47 150.034 298.47 141.197C298.47 132.36 291.307 125.197 282.47 125.197C273.633 125.197 266.47 132.36 266.47 141.197C266.47 150.034 273.633 157.197 282.47 157.197Z" fill="#F98E5D"/>
<path opacity="0.25" d="M635.47 115.197H553.47C551.813 115.197 550.47 116.54 550.47 118.197C550.47 119.854 551.813 121.197 553.47 121.197H635.47C637.127 121.197 638.47 119.854 638.47 118.197C638.47 116.54 637.127 115.197 635.47 115.197Z" fill="#242A45"/>
<path opacity="0.25" d="M635.47 135.197H553.47C551.813 135.197 550.47 136.54 550.47 138.197C550.47 139.854 551.813 141.197 553.47 141.197H635.47C637.127 141.197 638.47 139.854 638.47 138.197C638.47 136.54 637.127 135.197 635.47 135.197Z" fill="#242A45"/>
<path opacity="0.25" d="M635.47 155.197H553.47C551.813 155.197 550.47 156.54 550.47 158.197C550.47 159.854 551.813 161.197 553.47 161.197H635.47C637.127 161.197 638.47 159.854 638.47 158.197C638.47 156.54 637.127 155.197 635.47 155.197Z" fill="#242A45"/>
<path opacity="0.25" d="M635.47 175.197H553.47C551.813 175.197 550.47 176.54 550.47 178.197C550.47 179.854 551.813 181.197 553.47 181.197H635.47C637.127 181.197 638.47 179.854 638.47 178.197C638.47 176.54 637.127 175.197 635.47 175.197Z" fill="#242A45"/>
<path opacity="0.25" d="M635.47 209.197H553.47C551.813 209.197 550.47 210.54 550.47 212.197C550.47 213.854 551.813 215.197 553.47 215.197H635.47C637.127 215.197 638.47 213.854 638.47 212.197C638.47 210.54 637.127 209.197 635.47 209.197Z" fill="#242A45"/>
<path opacity="0.25" d="M635.47 229.197H553.47C551.813 229.197 550.47 230.54 550.47 232.197C550.47 233.854 551.813 235.197 553.47 235.197H635.47C637.127 235.197 638.47 233.854 638.47 232.197C638.47 230.54 637.127 229.197 635.47 229.197Z" fill="#242A45"/>
<path opacity="0.25" d="M635.47 249.197H553.47C551.813 249.197 550.47 250.54 550.47 252.197C550.47 253.854 551.813 255.197 553.47 255.197H635.47C637.127 255.197 638.47 253.854 638.47 252.197C638.47 250.54 637.127 249.197 635.47 249.197Z" fill="#242A45"/>
<path opacity="0.25" d="M374.47 145.197H316.47C314.813 145.197 313.47 146.54 313.47 148.197C313.47 149.854 314.813 151.197 316.47 151.197H374.47C376.127 151.197 377.47 149.854 377.47 148.197C377.47 146.54 376.127 145.197 374.47 145.197Z" fill="#242A45"/>
<path d="M282.47 213.197C291.307 213.197 298.47 206.034 298.47 197.197C298.47 188.36 291.307 181.197 282.47 181.197C273.633 181.197 266.47 188.36 266.47 197.197C266.47 206.034 273.633 213.197 282.47 213.197Z" fill="#6AC6D6"/>
<path opacity="0.5" d="M430.47 187.197H316.47C314.813 187.197 313.47 188.54 313.47 190.197C313.47 191.854 314.813 193.197 316.47 193.197H430.47C432.127 193.197 433.47 191.854 433.47 190.197C433.47 188.54 432.127 187.197 430.47 187.197Z" fill="#242A45"/>
<path opacity="0.25" d="M374.47 201.197H316.47C314.813 201.197 313.47 202.54 313.47 204.197C313.47 205.854 314.813 207.197 316.47 207.197H374.47C376.127 207.197 377.47 205.854 377.47 204.197C377.47 202.54 376.127 201.197 374.47 201.197Z" fill="#242A45"/>
<path d="M282.47 269.197C291.307 269.197 298.47 262.034 298.47 253.197C298.47 244.36 291.307 237.197 282.47 237.197C273.633 237.197 266.47 244.36 266.47 253.197C266.47 262.034 273.633 269.197 282.47 269.197Z" fill="#A47ED4"/>
<path opacity="0.5" d="M430.47 243.197H316.47C314.813 243.197 313.47 244.54 313.47 246.197C313.47 247.854 314.813 249.197 316.47 249.197H430.47C432.127 249.197 433.47 247.854 433.47 246.197C433.47 244.54 432.127 243.197 430.47 243.197Z" fill="#242A45"/>
<path opacity="0.25" d="M374.47 257.197H316.47C314.813 257.197 313.47 258.54 313.47 260.197C313.47 261.854 314.813 263.197 316.47 263.197H374.47C376.127 263.197 377.47 261.854 377.47 260.197C377.47 258.54 376.127 257.197 374.47 257.197Z" fill="#242A45"/>
<path d="M282.47 325.197C291.307 325.197 298.47 318.034 298.47 309.197C298.47 300.36 291.307 293.197 282.47 293.197C273.633 293.197 266.47 300.36 266.47 309.197C266.47 318.034 273.633 325.197 282.47 325.197Z" fill="#EC7878"/>
<path opacity="0.5" d="M430.47 299.197H316.47C314.813 299.197 313.47 300.54 313.47 302.197C313.47 303.854 314.813 305.197 316.47 305.197H430.47C432.127 305.197 433.47 303.854 433.47 302.197C433.47 300.54 432.127 299.197 430.47 299.197Z" fill="#242A45"/>
<path opacity="0.25" d="M374.47 313.197H316.47C314.813 313.197 313.47 314.54 313.47 316.197C313.47 317.854 314.813 319.197 316.47 319.197H374.47C376.127 319.197 377.47 317.854 377.47 316.197C377.47 314.54 376.127 313.197 374.47 313.197Z" fill="#242A45"/>
</g>
</svg>
