<svg width="713" height="466" viewBox="0 0 713 466" fill="none" xmlns="http://www.w3.org/2000/svg">
<path d="M188 297C188 213.605 255.605 146 339 146H713V466H339C255.605 466 188 398.395 188 315V297Z" fill="#5368DF"/>
<g filter="url(#filter0_d_2_53)">
<path d="M590.73 11.5H66.5C52.6929 11.5 41.5 22.6929 41.5 36.5V368.365C41.5 382.172 52.6929 393.365 66.5 393.365H590.73C604.537 393.365 615.73 382.172 615.73 368.365V36.5C615.73 22.6929 604.537 11.5 590.73 11.5Z" fill="url(#paint0_linear_2_53)"/>
<path opacity="0.1" d="M559.993 25.803H98.53C95.7686 25.803 93.53 28.0416 93.53 30.803V374.559C93.53 377.32 95.7686 379.559 98.53 379.559H559.993C562.754 379.559 564.993 377.32 564.993 374.559V30.803C564.993 28.0416 562.754 25.803 559.993 25.803Z" fill="#2A2A2A"/>
<mask id="mask0_2_53" style="mask-type:alpha" maskUnits="userSpaceOnUse" x="60" y="28" width="537" height="347">
<path d="M588.53 28.803H68.53C64.1117 28.803 60.53 32.3847 60.53 36.803V366.803C60.53 371.221 64.1117 374.803 68.53 374.803H588.53C592.948 374.803 596.53 371.221 596.53 366.803V36.803C596.53 32.3847 592.948 28.803 588.53 28.803Z" fill="white"/>
</mask>
<g mask="url(#mask0_2_53)">
<path d="M588.53 28.803H68.53C64.1117 28.803 60.53 32.3847 60.53 36.803V366.803C60.53 371.221 64.1117 374.803 68.53 374.803H588.53C592.948 374.803 596.53 371.221 596.53 366.803V36.803C596.53 32.3847 592.948 28.803 588.53 28.803Z" fill="#E8EAF6"/>
<path fill-rule="evenodd" clip-rule="evenodd" d="M57 29H604V88H57V29Z" fill="#5267DF"/>
<path opacity="0.245" d="M99 75C107.837 75 115 67.8366 115 59C115 50.1634 107.837 43 99 43C90.1634 43 83 50.1634 83 59C83 67.8366 90.1634 75 99 75Z" fill="white"/>
<path opacity="0.104" d="M560 75C568.837 75 576 67.8366 576 59C576 50.1634 568.837 43 560 43C551.163 43 544 50.1634 544 59C544 67.8366 551.163 75 560 75Z" fill="white"/>
<path opacity="0.75" d="M247 49H133C131.343 49 130 50.3431 130 52C130 53.6569 131.343 55 133 55H247C248.657 55 250 53.6569 250 52C250 50.3431 248.657 49 247 49Z" fill="white"/>
<path opacity="0.25" d="M191 63H133C131.343 63 130 64.3431 130 66C130 67.6569 131.343 69 133 69H191C192.657 69 194 67.6569 194 66C194 64.3431 192.657 63 191 63Z" fill="white"/>
<path d="M370.53 121.803H125.53C121.112 121.803 117.53 125.385 117.53 129.803V429.803C117.53 434.221 121.112 437.803 125.53 437.803H370.53C374.948 437.803 378.53 434.221 378.53 429.803V129.803C378.53 125.385 374.948 121.803 370.53 121.803Z" fill="white"/>
<path d="M532.53 121.803H420.53C416.112 121.803 412.53 125.385 412.53 129.803V429.803C412.53 434.221 416.112 437.803 420.53 437.803H532.53C536.948 437.803 540.53 434.221 540.53 429.803V129.803C540.53 125.385 536.948 121.803 532.53 121.803Z" fill="white"/>
<path opacity="0.5" d="M313 160H199C197.343 160 196 161.343 196 163C196 164.657 197.343 166 199 166H313C314.657 166 316 164.657 316 163C316 161.343 314.657 160 313 160Z" fill="#242A45"/>
</g>
<path d="M165 186C173.837 186 181 178.837 181 170C181 161.163 173.837 154 165 154C156.163 154 149 161.163 149 170C149 178.837 156.163 186 165 186Z" fill="#F98E5D"/>
<path opacity="0.25" d="M518 144H436C434.343 144 433 145.343 433 147C433 148.657 434.343 150 436 150H518C519.657 150 521 148.657 521 147C521 145.343 519.657 144 518 144Z" fill="#242A45"/>
<path opacity="0.25" d="M518 164H436C434.343 164 433 165.343 433 167C433 168.657 434.343 170 436 170H518C519.657 170 521 168.657 521 167C521 165.343 519.657 164 518 164Z" fill="#242A45"/>
<path opacity="0.25" d="M518 184H436C434.343 184 433 185.343 433 187C433 188.657 434.343 190 436 190H518C519.657 190 521 188.657 521 187C521 185.343 519.657 184 518 184Z" fill="#242A45"/>
<path opacity="0.25" d="M518 204H436C434.343 204 433 205.343 433 207C433 208.657 434.343 210 436 210H518C519.657 210 521 208.657 521 207C521 205.343 519.657 204 518 204Z" fill="#242A45"/>
<path opacity="0.25" d="M518 238H436C434.343 238 433 239.343 433 241C433 242.657 434.343 244 436 244H518C519.657 244 521 242.657 521 241C521 239.343 519.657 238 518 238Z" fill="#242A45"/>
<path opacity="0.25" d="M518 258H436C434.343 258 433 259.343 433 261C433 262.657 434.343 264 436 264H518C519.657 264 521 262.657 521 261C521 259.343 519.657 258 518 258Z" fill="#242A45"/>
<path opacity="0.25" d="M518 278H436C434.343 278 433 279.343 433 281C433 282.657 434.343 284 436 284H518C519.657 284 521 282.657 521 281C521 279.343 519.657 278 518 278Z" fill="#242A45"/>
<path opacity="0.25" d="M257 174H199C197.343 174 196 175.343 196 177C196 178.657 197.343 180 199 180H257C258.657 180 260 178.657 260 177C260 175.343 258.657 174 257 174Z" fill="#242A45"/>
<path d="M165 242C173.837 242 181 234.837 181 226C181 217.163 173.837 210 165 210C156.163 210 149 217.163 149 226C149 234.837 156.163 242 165 242Z" fill="#6AC6D6"/>
<path opacity="0.5" d="M313 216H199C197.343 216 196 217.343 196 219C196 220.657 197.343 222 199 222H313C314.657 222 316 220.657 316 219C316 217.343 314.657 216 313 216Z" fill="#242A45"/>
<path opacity="0.25" d="M257 230H199C197.343 230 196 231.343 196 233C196 234.657 197.343 236 199 236H257C258.657 236 260 234.657 260 233C260 231.343 258.657 230 257 230Z" fill="#242A45"/>
<path d="M165 298C173.837 298 181 290.837 181 282C181 273.163 173.837 266 165 266C156.163 266 149 273.163 149 282C149 290.837 156.163 298 165 298Z" fill="#A47ED4"/>
<path opacity="0.5" d="M313 272H199C197.343 272 196 273.343 196 275C196 276.657 197.343 278 199 278H313C314.657 278 316 276.657 316 275C316 273.343 314.657 272 313 272Z" fill="#242A45"/>
<path opacity="0.25" d="M257 286H199C197.343 286 196 287.343 196 289C196 290.657 197.343 292 199 292H257C258.657 292 260 290.657 260 289C260 287.343 258.657 286 257 286Z" fill="#242A45"/>
<path d="M165 354C173.837 354 181 346.837 181 338C181 329.163 173.837 322 165 322C156.163 322 149 329.163 149 338C149 346.837 156.163 354 165 354Z" fill="#EC7878"/>
<path opacity="0.5" d="M313 328H199C197.343 328 196 329.343 196 331C196 332.657 197.343 334 199 334H313C314.657 334 316 332.657 316 331C316 329.343 314.657 328 313 328Z" fill="#242A45"/>
<path opacity="0.25" d="M257 342H199C197.343 342 196 343.343 196 345C196 346.657 197.343 348 199 348H257C258.657 348 260 346.657 260 345C260 343.343 258.657 342 257 342Z" fill="#242A45"/>
</g>
<defs>
<filter id="filter0_d_2_53" x="37.5" y="9.5" width="582.23" height="389.865" filterUnits="userSpaceOnUse" color-interpolation-filters="sRGB">
<feFlood flood-opacity="0" result="BackgroundImageFix"/>
<feColorMatrix in="SourceAlpha" type="matrix" values="0 0 0 0 0 0 0 0 0 0 0 0 0 0 0 0 0 0 127 0" result="hardAlpha"/>
<feOffset dy="2"/>
<feGaussianBlur stdDeviation="2"/>
<feColorMatrix type="matrix" values="0 0 0 0 0 0 0 0 0 0 0 0 0 0 0 0 0 0 0.5 0"/>
<feBlend mode="normal" in2="BackgroundImageFix" result="effect1_dropShadow_2_53"/>
<feBlend mode="normal" in="SourceGraphic" in2="effect1_dropShadow_2_53" result="shape"/>
</filter>
<linearGradient id="paint0_linear_2_53" x1="610.062" y1="285.202" x2="150.849" y2="-20.1735" gradientUnits="userSpaceOnUse">
<stop stop-color="#151515"/>
<stop offset="1" stop-color="#3D3D3D"/>
</linearGradient>
</defs>
</svg>
